<?xml version="1.0" encoding="UTF-8" standalone="no"?>
<svg
        xmlns:dc="http://purl.org/dc/elements/1.1/"
        xmlns:cc="http://creativecommons.org/ns#"
        xmlns:rdf="http://www.w3.org/1999/02/22-rdf-syntax-ns#"
        xmlns:svg="http://www.w3.org/2000/svg"
        xmlns="http://www.w3.org/2000/svg"
        xmlns:sodipodi="http://sodipodi.sourceforge.net/DTD/sodipodi-0.dtd"
        xmlns:inkscape="http://www.inkscape.org/namespaces/inkscape"
        width="36"
        height="36"
        viewBox="0 0 9.5250005 9.5250005"
        version="1.1"
        id="svg8"
        inkscape:version="1.0.2-2 (e86c870879, 2021-01-15)"
        sodipodi:docname="green_summed_with_border.svg"
        inkscape:export-filename="C:\Users\gWX973233\Desktop\logo\small_blue_new.png"
        inkscape:export-xdpi="90"
        inkscape:export-ydpi="90">
    <defs
            id="defs2"/>
    <sodipodi:namedview
            id="base"
            pagecolor="#ffffff"
            bordercolor="#666666"
            borderopacity="1.0"
            inkscape:pageopacity="0.0"
            inkscape:pageshadow="2"
            inkscape:zoom="22.4"
            inkscape:cx="20.46681"
            inkscape:cy="18.888252"
            inkscape:document-units="mm"
            inkscape:current-layer="g895"
            inkscape:document-rotation="0"
            showgrid="false"
            fit-margin-top="0"
            fit-margin-left="0"
            fit-margin-right="0"
            fit-margin-bottom="0"
            lock-margins="false"
            units="px"
            width="36mm"
            inkscape:snap-object-midpoints="false"
            inkscape:window-width="1920"
            inkscape:window-height="1057"
            inkscape:window-x="1912"
            inkscape:window-y="-8"
            inkscape:window-maximized="1"/>
    <metadata
            id="metadata5">
        <rdf:RDF>
            <cc:Work
                    rdf:about="">
                <dc:format>image/svg+xml</dc:format>
                <dc:type
                        rdf:resource="http://purl.org/dc/dcmitype/StillImage"/>
                <dc:title></dc:title>
            </cc:Work>
        </rdf:RDF>
    </metadata>
    <g
            inkscape:label="Слой 1"
            inkscape:groupmode="layer"
            id="layer1"
            transform="translate(-51.454052,-32.446877)">
        <g
                id="g895">
            <g
                    aria-label="b"
                    transform="matrix(0.38565326,0,0,0.40474913,49.699735,-131.91688)"
                    id="text950-0-40-3-8"
                    style="font-size:22.1357px;line-height:1.25;font-family:coolvetica;-inkscape-font-specification:coolvetica;fill:#808080;fill-opacity:1;stroke-width:0.553396">
                <g
                        id="path990-2-0-5-3"
                        style="opacity:1"/>
            </g>
            <path
                    id="path1161-9-67-23-3-5-3"
                    style="display:inline;fill:#94bc8f;fill-opacity:1;stroke:#94bc8f;stroke-width:0.070851px;stroke-linecap:butt;stroke-linejoin:miter;stroke-opacity:1"
                    d="M 4.6542969 1.7441406 L 4.6542969 5.7617188 C 4.6542969 5.7617188 8.053963 5.8871083 7.3808594 7.6347656 C 6.0977356 10.966255 4.0842585 17.83752 6.3535156 22.791016 L 6.140625 22.791016 L 6.140625 23.191406 L 6.140625 34.255859 L 8.7949219 34.255859 L 8.8027344 33.646484 C 9.2740415 34.006749 9.8085613 34.255859 10.443359 34.255859 C 11.474025 34.255859 12.397028 33.81078 13.027344 33.017578 C 13.407597 32.539057 13.670029 31.929366 13.830078 31.232422 C 14.018457 31.915318 14.33178 32.527485 14.796875 33.009766 C 15.56328 33.804494 16.680103 34.255859 18.023438 34.255859 C 19.320265 34.255859 20.425149 33.817343 21.191406 33.029297 C 21.601622 32.607419 21.902559 32.084753 22.101562 31.496094 C 22.231264 32.109257 22.487809 32.683511 22.925781 33.146484 C 23.579863 33.8379 24.594044 34.255859 25.945312 34.255859 C 27.256253 34.255859 28.258244 33.833052 28.912109 33.144531 C 29.565975 32.456011 29.859375 31.529271 29.859375 30.583984 L 29.859375 27.857422 L 26.919922 27.857422 L 26.919922 30.384766 C 26.919922 30.835021 26.822832 31.13706 26.683594 31.308594 C 26.544356 31.480147 26.354619 31.576172 25.980469 31.576172 C 25.598264 31.576172 25.4195 31.479226 25.285156 31.304688 C 25.150832 31.130149 25.058594 30.815609 25.058594 30.351562 L 25.058594 27.400391 L 29.859375 27.400391 L 29.859375 25.070312 L 28.136719 25.070312 C 32.603083 20.213047 30.11514 11.518972 28.619141 7.6347656 C 27.946037 5.8871234 31.345703 5.7617188 31.345703 5.7617188 L 31.345703 1.7441406 L 21.972656 1.7441406 C 25.391554 6.5140202 29.444339 18.478361 23.757812 22.861328 L 21.996094 22.861328 L 21.996094 23.835938 C 20.89971 24.262273 19.584422 24.505859 18 24.505859 C 4.6108006 24.505859 9.8046893 7.6353923 14.027344 1.7441406 L 4.6542969 1.7441406 z M 8.84375 25.992188 C 8.8628627 26.007347 8.8791387 26.024013 8.8984375 26.039062 C 8.8805324 26.05281 8.86151 26.064081 8.84375 26.078125 L 8.84375 25.992188 z M 9.9824219 27.921875 C 10.45176 27.921875 10.706127 28.049073 10.908203 28.339844 C 11.110257 28.630641 11.244141 29.144152 11.244141 29.884766 C 11.244141 30.502983 11.087383 31.003517 10.857422 31.326172 C 10.627475 31.64883 10.350226 31.802734 10 31.802734 C 9.6715969 31.802734 9.3882252 31.65161 9.1582031 31.347656 C 8.9281811 31.043707 8.7675781 30.581986 8.7675781 30.009766 C 8.7675781 29.221073 8.9073848 28.671587 9.1113281 28.359375 C 9.3152714 28.047148 9.5518732 27.921875 9.9824219 27.921875 z M 13.808594 28.144531 C 13.836611 28.150122 13.868296 28.152729 13.896484 28.158203 C 13.87624 28.218391 13.865573 28.284054 13.847656 28.345703 C 13.833192 28.279452 13.825243 28.209203 13.808594 28.144531 z M 16.830078 28.488281 C 17.211885 28.505565 17.594267 28.523438 18 28.523438 C 18.421299 28.523438 18.81933 28.506903 19.214844 28.488281 C 19.387934 28.780888 19.501953 29.21013 19.501953 29.822266 C 19.501953 30.546264 19.351079 31.03464 19.119141 31.322266 C 18.887191 31.609888 18.563619 31.755859 18.023438 31.755859 C 17.483256 31.755859 17.159684 31.609903 16.927734 31.322266 C 16.695785 31.034644 16.544922 30.546264 16.544922 29.822266 C 16.544922 29.210758 16.657288 28.780884 16.830078 28.488281 z "
                    transform="matrix(0.26458333,0,0,0.26458333,51.454052,32.446877)"/>
            <path
                    id="path1169-28-0-0-8-3-07"
                    style="font-style:normal;font-weight:normal;font-size:107.482px;line-height:1.25;font-family:sans-serif;display:inline;fill:#2fa626;fill-opacity:1;stroke:none;stroke-width:0.0220865"
                    d="m 56.204985,34.369249 h -1.692899 v 0.690693 c 0.71507,-0.04309 1.185915,-0.06616 1.349046,0.758668 0.182779,0.92417 0.265509,2.267828 0.343853,3.112049 0.07834,-0.844221 0.161075,-2.187908 0.343854,-3.112084 0.163131,-0.824822 0.633976,-0.801724 1.349047,-0.758633 v -0.690693 z"
                    inkscape:export-xdpi="96"
                    inkscape:export-ydpi="96"/>
            <path
                    style="display:inline;fill:#1a1a1a;fill-opacity:1;stroke:none;stroke-width:0.070851px;stroke-linecap:butt;stroke-linejoin:miter;stroke-opacity:1"
                    d="m 53.185177,38.582967 v 2.821245 h 0.490507 l 0.0039,-0.300689 c 0.121654,0.205932 0.302258,0.300689 0.537718,0.300689 0.486617,0 0.835743,-0.403687 0.835743,-1.087382 0,-0.613679 -0.294191,-1.046161 -0.792581,-1.046161 -0.239384,0 -0.427785,0.103081 -0.572985,0.31725 v -1.004952 z m 0.910378,1.144934 c 0.298249,0 0.439607,0.210012 0.439607,0.625996 0,0.36244 -0.180579,0.613568 -0.43566,0.613568 -0.243308,0 -0.431713,-0.238795 -0.431713,-0.580643 0,-0.440696 0.145214,-0.658921 0.427766,-0.658921 z"
                    id="path2127"/>
            <path
                    style="display:inline;fill:#1a1a1a;fill-opacity:1;stroke:none;stroke-width:0.070851px;stroke-linecap:butt;stroke-linejoin:miter;stroke-opacity:1"
                    d="m 56.22281,40.955199 c -0.330052,0 -0.497168,-0.205932 -0.497168,-0.617797 0,-0.411864 0.167116,-0.613678 0.497168,-0.613678 0.330054,0 0.497169,0.201814 0.497169,0.613678 0,0.411865 -0.167115,0.617797 -0.497169,0.617797 z m 0,0.448932 c 0.639218,0 1.044473,-0.42422 1.044473,-1.066729 0,-0.646627 -0.401078,-1.066729 -1.044473,-1.066729 -0.65175,0 -1.057005,0.424221 -1.057005,1.066729 0,0.630153 0.392722,1.066729 1.057005,1.066729 z"
                    id="path2133"/>
            <path
                    style="display:inline;fill:#1a1a1a;fill-opacity:1;stroke:none;stroke-width:0.070851px;stroke-linecap:butt;stroke-linejoin:miter;stroke-opacity:1"
                    d="m 58.682864,40.486253 c 0,0.267901 -0.11208,0.421614 -0.354918,0.421614 -0.247508,0 -0.350248,-0.158105 -0.350248,-0.430398 v -0.887147 h 1.270233 v -0.404048 h -1.270233 v -0.584112 h -0.597756 v 1.932401 c 0,0.465533 0.266188,0.86958 0.938664,0.86958 0.649126,0 0.929325,-0.408439 0.929325,-0.865188 V 39.9241 h -0.565067 z"
                    id="path2139"/>
            <path
                    id="path3157-8-5-7-8-1"
                    style="display:inline;fill:#2fa626;fill-opacity:1;stroke-width:0.0138875"
                    d="m 55.472851,40.159666 0.341777,-0.338577 c 0.282153,0.14567 0.303617,0.221644 0.426349,0.348836 0.628938,-0.816086 1.280876,-1.184576 2.197111,-1.628452 -0.887081,0.602108 -1.422302,1.008064 -2.221548,2.241166 -0.276719,-0.296703 -0.467089,-0.605147 -0.743757,-0.622981 z"
                    inkscape:export-ydpi="90"
                    sodipodi:nodetypes="cccccc"
                    inkscape:export-filename="/home/user/Projects/Ethical Marketing Pro/Nexify/flyer/tick.png"
                    inkscape:connector-curvature="0"
                    inkscape:export-xdpi="90"/>
        </g>
    </g>
</svg>
